<?xml version="1.0" standalone="no"?>
<svg viewBox="0 0 200 200" xmlns="http://www.w3.org/2000/svg">
  <path fill="#ADB5BD" d="M24.1,-42.6C37.6,-34,59.2,-40.3,72.9,-35.7C86.6,-31.1,92.4,-15.5,82.7,-5.6C72.9,4.3,47.6,8.6,38.9,22C30.3,35.4,38.4,57.9,34.7,67C30.9,76.1,15.5,71.8,2.2,68C-11,64.1,-22.1,60.7,-33.4,56C-44.7,51.3,-56.3,45.3,-64.9,35.7C-73.5,26.2,-79.1,13.1,-72.6,3.8C-66.1,-5.6,-47.6,-11.2,-40.9,-24.1C-34.3,-37.1,-39.6,-57.5,-34.8,-71.1C-29.9,-84.8,-15,-91.7,-4.8,-83.4C5.3,-75,10.6,-51.3,24.1,-42.6Z" transform="translate(100 100)" />
</svg>
